<svg width="40" height="40" viewBox="0 0 40 40" fill="none" xmlns="http://www.w3.org/2000/svg">
<rect width="40" height="40" rx="20" fill="#FF3E79"/>
<path fill-rule="evenodd" clip-rule="evenodd" d="M13.7931 12.2571C13.4026 11.8666 12.7694 11.8666 12.3789 12.2571L12.2568 12.3793C11.8662 12.7698 11.8662 13.403 12.2568 13.7935L18.4633 20L12.2568 26.2065C11.8662 26.5971 11.8662 27.2302 12.2568 27.6207L12.3789 27.7429C12.7694 28.1334 13.4026 28.1334 13.7931 27.7429L19.9996 21.5364L26.2062 27.7429C26.5967 28.1334 27.2299 28.1334 27.6204 27.7429L27.7425 27.6207C28.1331 27.2302 28.1331 26.5971 27.7425 26.2065L21.536 20L27.7425 13.7935C28.1331 13.403 28.1331 12.7698 27.7425 12.3793L27.6204 12.2571C27.2299 11.8666 26.5967 11.8666 26.2062 12.2571L19.9996 18.4636L13.7931 12.2571Z" fill="white"/>
</svg>
